<mxfile host="app.diagrams.net" modified="2023-11-14T04:41:25.704Z" agent="Mozilla/5.0 (Macintosh; Intel Mac OS X 10_15_7) AppleWebKit/537.36 (KHTML, like Gecko) Chrome/119.0.0.0 Safari/537.36" etag="q2tQ7H68kb-fhSdja-XM" version="22.1.0" type="github">
  <diagram name="페이지-1" id="XDzUN5a37bOO6dcWcG5I">
    <mxGraphModel dx="1081" dy="765" grid="1" gridSize="10" guides="1" tooltips="1" connect="1" arrows="1" fold="1" page="1" pageScale="1" pageWidth="827" pageHeight="1169" math="0" shadow="0">
      <root>
        <mxCell id="0" />
        <mxCell id="1" parent="0" />
        <mxCell id="Kwug6nhR2urcLbSKlPnD-1" value="&lt;font style=&quot;font-size: 17px;&quot;&gt;spring FE&lt;/font&gt;" style="whiteSpace=wrap;html=1;aspect=fixed;" vertex="1" parent="1">
          <mxGeometry x="60" y="190" width="110" height="110" as="geometry" />
        </mxCell>
        <mxCell id="Kwug6nhR2urcLbSKlPnD-2" value="&lt;font style=&quot;font-size: 15px;&quot;&gt;extension&lt;br&gt;service_worker&lt;br&gt;&lt;/font&gt;" style="whiteSpace=wrap;html=1;aspect=fixed;" vertex="1" parent="1">
          <mxGeometry x="340" y="190" width="110" height="110" as="geometry" />
        </mxCell>
        <mxCell id="Kwug6nhR2urcLbSKlPnD-3" value="&lt;span style=&quot;font-size: 17px;&quot;&gt;external api&lt;br&gt;(naver)&lt;br&gt;&lt;/span&gt;" style="whiteSpace=wrap;html=1;aspect=fixed;" vertex="1" parent="1">
          <mxGeometry x="620" y="190" width="110" height="110" as="geometry" />
        </mxCell>
        <mxCell id="Kwug6nhR2urcLbSKlPnD-4" value="" style="endArrow=classic;startArrow=classic;html=1;rounded=0;" edge="1" parent="1">
          <mxGeometry width="50" height="50" relative="1" as="geometry">
            <mxPoint x="190" y="244.5" as="sourcePoint" />
            <mxPoint x="320" y="245" as="targetPoint" />
          </mxGeometry>
        </mxCell>
        <mxCell id="Kwug6nhR2urcLbSKlPnD-6" value="&lt;font style=&quot;font-size: 12px;&quot;&gt;external Message&lt;/font&gt;" style="edgeLabel;html=1;align=center;verticalAlign=middle;resizable=0;points=[];" vertex="1" connectable="0" parent="Kwug6nhR2urcLbSKlPnD-4">
          <mxGeometry x="0.0616" y="-1" relative="1" as="geometry">
            <mxPoint as="offset" />
          </mxGeometry>
        </mxCell>
        <mxCell id="Kwug6nhR2urcLbSKlPnD-5" value="" style="endArrow=classic;startArrow=classic;html=1;rounded=0;" edge="1" parent="1">
          <mxGeometry width="50" height="50" relative="1" as="geometry">
            <mxPoint x="470" y="244.5" as="sourcePoint" />
            <mxPoint x="600" y="245" as="targetPoint" />
          </mxGeometry>
        </mxCell>
        <mxCell id="Kwug6nhR2urcLbSKlPnD-7" value="&lt;font style=&quot;font-size: 13px;&quot;&gt;fetch&lt;/font&gt;" style="edgeLabel;html=1;align=center;verticalAlign=middle;resizable=0;points=[];" vertex="1" connectable="0" parent="Kwug6nhR2urcLbSKlPnD-5">
          <mxGeometry x="-0.0924" y="1" relative="1" as="geometry">
            <mxPoint as="offset" />
          </mxGeometry>
        </mxCell>
      </root>
    </mxGraphModel>
  </diagram>
</mxfile>
